<?xml version="1.0" encoding="UTF-8"?>
<svg id="Layer_1" data-name="Layer 1" xmlns="http://www.w3.org/2000/svg" xmlns:xlink="http://www.w3.org/1999/xlink" viewBox="0 0 98 98">
  <defs>
    <style>
      .cls-1 {
        fill: url(#linear-gradient-2);
      }

      .cls-2 {
        fill: #f5f5f5;
      }

      .cls-3 {
        fill: url(#linear-gradient-6);
      }

      .cls-4 {
        stroke: url(#linear-gradient-13);
      }

      .cls-4, .cls-5, .cls-6, .cls-7, .cls-8, .cls-9, .cls-10 {
        fill: none;
        stroke-miterlimit: 10;
      }

      .cls-5 {
        stroke: url(#linear-gradient-16);
      }

      .cls-6 {
        stroke: url(#linear-gradient-12);
      }

      .cls-11 {
        fill: url(#linear-gradient-5);
      }

      .cls-12 {
        fill: url(#linear-gradient-7);
      }

      .cls-13 {
        fill: url(#linear-gradient-9);
      }

      .cls-7 {
        stroke: url(#linear-gradient-14);
      }

      .cls-14 {
        fill: url(#linear-gradient-3);
      }

      .cls-15 {
        fill: url(#linear-gradient);
      }

      .cls-8 {
        stroke: url(#linear-gradient-11);
      }

      .cls-9 {
        stroke: url(#linear-gradient-10);
      }

      .cls-10 {
        stroke: url(#linear-gradient-15);
      }

      .cls-16 {
        fill: url(#linear-gradient-4);
      }

      .cls-17 {
        fill: url(#linear-gradient-8);
      }
    </style>
    <linearGradient id="linear-gradient" x1="480.29" y1="-2.3" x2="484.02" y2="-18.43" gradientTransform="translate(568.92 34.49) rotate(-180)" gradientUnits="userSpaceOnUse">
      <stop offset=".18" stop-color="#1c75bc"/>
      <stop offset=".33" stop-color="#1e5ea4"/>
      <stop offset=".65" stop-color="#233374"/>
      <stop offset=".81" stop-color="#262262"/>
    </linearGradient>
    <linearGradient id="linear-gradient-2" x1="9.37" y1="51.48" x2="13.1" y2="35.35" gradientTransform="matrix(1, 0, 0, 1, 0, 0)" xlink:href="#linear-gradient"/>
    <linearGradient id="linear-gradient-3" x1="539.52" y1="-1.28" x2="543.25" y2="-17.41" xlink:href="#linear-gradient"/>
    <linearGradient id="linear-gradient-4" x1="18.39" y1="47.91" x2="20.32" y2="39.59" gradientTransform="matrix(1, 0, 0, 1, 0, 0)" xlink:href="#linear-gradient"/>
    <linearGradient id="linear-gradient-5" x1="68.59" y1="52.49" x2="72.33" y2="36.36" gradientTransform="matrix(1, 0, 0, 1, 0, 0)" xlink:href="#linear-gradient"/>
    <linearGradient id="linear-gradient-6" x1="77.62" y1="48.93" x2="79.55" y2="40.61" gradientTransform="matrix(1, 0, 0, 1, 0, 0)" xlink:href="#linear-gradient"/>
    <linearGradient id="linear-gradient-7" x1="35.74" y1="49.11" x2="40.4" y2="28.95" gradientTransform="matrix(1, 0, 0, 1, 0, 0)" xlink:href="#linear-gradient"/>
    <linearGradient id="linear-gradient-8" x1="508.14" y1="5.01" x2="512.81" y2="-15.15" xlink:href="#linear-gradient"/>
    <linearGradient id="linear-gradient-9" x1="47.02" y1="44.65" x2="49.42" y2="34.26" gradientTransform="matrix(1, 0, 0, 1, 0, 0)" xlink:href="#linear-gradient"/>
    <linearGradient id="linear-gradient-10" x1="7.53" y1="65.86" x2="15.45" y2="65.86" gradientTransform="matrix(1, 0, 0, 1, 0, 0)" xlink:href="#linear-gradient"/>
    <linearGradient id="linear-gradient-11" x1="20.03" y1="65.86" x2="28.05" y2="65.86" gradientTransform="matrix(1, 0, 0, 1, 0, 0)" xlink:href="#linear-gradient"/>
    <linearGradient id="linear-gradient-12" x1="32.53" y1="66.72" x2="40.47" y2="66.72" gradientTransform="matrix(1, 0, 0, 1, 0, 0)" xlink:href="#linear-gradient"/>
    <linearGradient id="linear-gradient-13" x1="45.03" y1="65.86" x2="52.93" y2="65.86" gradientTransform="matrix(1, 0, 0, 1, 0, 0)" xlink:href="#linear-gradient"/>
    <linearGradient id="linear-gradient-14" x1="57.53" y1="65.75" x2="65.47" y2="65.75" gradientTransform="matrix(1, 0, 0, 1, 0, 0)" xlink:href="#linear-gradient"/>
    <linearGradient id="linear-gradient-15" x1="70.06" y1="65.86" x2="77.95" y2="65.86" gradientTransform="matrix(1, 0, 0, 1, 0, 0)" xlink:href="#linear-gradient"/>
    <linearGradient id="linear-gradient-16" x1="82.52" y1="65.86" x2="90.47" y2="65.86" gradientTransform="matrix(1, 0, 0, 1, 0, 0)" xlink:href="#linear-gradient"/>
  </defs>
  <rect class="cls-2" width="98" height="98"/>
  <g>
    <path class="cls-15" d="M83.93,34.96h.78c1.35,0,2.35,.31,3.01,.94,.66,.63,.99,1.58,.99,2.86v3.58c0,.34,.04,.64,.12,.91,.08,.27,.21,.49,.4,.68,.19,.18,.45,.32,.77,.42,.32,.1,.72,.15,1.2,.15h.45v1.45h-.45c-.51,0-.93,.04-1.25,.12-.32,.08-.57,.21-.75,.38-.18,.17-.31,.39-.38,.65-.07,.26-.1,.58-.1,.94v2.47c0,.58-.07,1.11-.21,1.58-.14,.47-.37,.87-.69,1.2-.32,.33-.73,.58-1.24,.76-.51,.18-1.13,.27-1.86,.27h-.78v-1.46h.62c1.62,0,2.43-.78,2.43-2.34v-2.43c0-1.69,.74-2.65,2.21-2.86-1.49-.15-2.23-1.1-2.23-2.85v-3.56c0-1.59-.8-2.38-2.41-2.38h-.62v-1.46Z"/>
    <g>
      <path class="cls-1" d="M14.07,53.3h-.78c-1.35,0-2.35-.31-3.01-.94-.66-.63-.99-1.58-.99-2.86v-3.58c0-.34-.04-.64-.12-.91-.08-.27-.21-.49-.4-.68-.19-.18-.45-.32-.77-.42-.32-.1-.72-.15-1.2-.15h-.45v-1.45h.45c.51,0,.93-.04,1.25-.12,.32-.08,.57-.21,.75-.38,.18-.17,.31-.39,.38-.65,.07-.26,.1-.58,.1-.94v-2.47c0-.58,.07-1.11,.21-1.58,.14-.47,.37-.87,.69-1.2,.32-.33,.73-.58,1.24-.76,.51-.18,1.13-.27,1.86-.27h.78v1.46h-.62c-1.62,0-2.43,.78-2.43,2.34v2.43c0,1.69-.74,2.65-2.21,2.86,1.49,.15,2.23,1.1,2.23,2.85v3.56c0,1.59,.8,2.38,2.41,2.38h.62v1.46Z"/>
      <path class="cls-14" d="M24.7,33.95h.78c1.35,0,2.35,.31,3.01,.94,.66,.63,.99,1.58,.99,2.86v3.58c0,.34,.04,.64,.12,.91,.08,.27,.21,.49,.4,.68,.19,.18,.45,.32,.77,.42,.32,.1,.72,.15,1.2,.15h.45v1.45h-.45c-.51,0-.93,.04-1.25,.12-.32,.08-.57,.21-.75,.38-.18,.17-.31,.39-.38,.65-.07,.26-.1,.58-.1,.94v2.47c0,.58-.07,1.11-.21,1.58-.14,.47-.37,.87-.69,1.2-.32,.33-.73,.58-1.24,.76-.51,.18-1.13,.27-1.86,.27h-.78v-1.46h.62c1.62,0,2.43-.78,2.43-2.34v-2.43c0-1.69,.74-2.65,2.21-2.86-1.49-.15-2.23-1.1-2.23-2.85v-3.56c0-1.59-.8-2.38-2.41-2.38h-.62v-1.46Z"/>
      <rect class="cls-16" x="15.08" y="39.35" width="8.61" height="8.55" rx=".92" ry=".92"/>
      <path class="cls-11" d="M73.3,54.31h-.78c-1.35,0-2.35-.31-3.01-.94-.66-.63-.99-1.58-.99-2.86v-3.58c0-.34-.04-.64-.12-.91-.08-.27-.21-.49-.4-.68-.19-.18-.45-.32-.77-.42-.32-.1-.72-.15-1.2-.15h-.45v-1.45h.45c.51,0,.93-.04,1.25-.12,.32-.08,.57-.21,.75-.38,.18-.17,.31-.39,.38-.65,.07-.26,.1-.58,.1-.94v-2.47c0-.58,.07-1.11,.21-1.58,.14-.47,.37-.87,.69-1.2,.32-.33,.73-.58,1.24-.76,.51-.18,1.13-.27,1.86-.27h.78v1.46h-.62c-1.62,0-2.43,.78-2.43,2.34v2.43c0,1.69-.74,2.65-2.21,2.86,1.49,.15,2.23,1.1,2.23,2.85v3.56c0,1.59,.8,2.38,2.41,2.38h.62v1.46Z"/>
      <rect class="cls-3" x="74.31" y="40.36" width="8.61" height="8.55" rx=".92" ry=".92"/>
      <path class="cls-12" d="M41.61,51.38h-.97c-1.69,0-2.94-.39-3.76-1.18-.82-.79-1.23-1.98-1.23-3.57v-4.48c0-.42-.05-.8-.14-1.14-.1-.33-.26-.62-.5-.85-.24-.23-.56-.41-.96-.53-.4-.12-.9-.18-1.5-.18h-.56v-1.81h.56c.64,0,1.16-.05,1.56-.16,.4-.1,.72-.26,.94-.48,.23-.21,.38-.48,.47-.81,.09-.33,.13-.72,.13-1.17v-3.08c0-.73,.09-1.39,.26-1.97,.17-.59,.46-1.08,.86-1.5,.4-.41,.91-.73,1.55-.95,.63-.22,1.41-.33,2.33-.33h.97v1.82h-.77c-2.03,0-3.04,.98-3.04,2.93v3.03c0,2.12-.92,3.31-2.76,3.58,1.86,.18,2.79,1.37,2.79,3.57v4.45c0,1.99,1,2.98,3.01,2.98h.77v1.82Z"/>
      <path class="cls-17" d="M54.9,27.2h.97c1.69,0,2.94,.39,3.76,1.18,.82,.79,1.23,1.98,1.23,3.57v4.48c0,.42,.05,.8,.14,1.14,.1,.33,.26,.62,.5,.85,.24,.23,.56,.41,.96,.53,.4,.12,.9,.18,1.5,.18h.56v1.81h-.56c-.64,0-1.16,.05-1.56,.16-.4,.1-.72,.26-.94,.48-.23,.21-.38,.48-.47,.81-.09,.33-.13,.72-.13,1.17v3.08c0,.73-.09,1.39-.26,1.97-.17,.59-.46,1.08-.86,1.5-.4,.41-.91,.73-1.55,.95-.63,.22-1.41,.33-2.33,.33h-.97v-1.82h.77c2.03,0,3.04-.98,3.04-2.93v-3.03c0-2.12,.92-3.31,2.76-3.58-1.86-.18-2.79-1.37-2.79-3.57v-4.45c0-1.99-1-2.98-3.01-2.98h-.77v-1.82Z"/>
      <rect class="cls-13" x="42.88" y="33.95" width="10.76" height="10.69" rx="1.14" ry="1.14"/>
    </g>
  </g>
  <g>
    <path class="cls-9" d="M14.95,65.9c0,1.65-.24,3.01-.73,4.08-.66,1.46-1.71,2.2-3.16,2.2h-3.02v-.34c.42-.07,.71-.2,.85-.39,.17-.25,.26-.71,.26-1.37v-8.39c0-.7-.09-1.17-.26-1.41-.13-.18-.41-.31-.85-.38v-.34h2.89c1.28,0,2.28,.54,2.98,1.61,.7,1.06,1.04,2.64,1.04,4.73Zm-.94,.02c0-1.92-.33-3.41-.98-4.46-.55-.88-1.42-1.32-2.62-1.32-.26,0-.43,.09-.52,.26-.05,.1-.07,.31-.07,.63v9.66c0,.42,.07,.69,.2,.81,.1,.07,.27,.1,.5,.1,2.31,0,3.47-1.89,3.47-5.68Z"/>
    <path class="cls-8" d="M27.46,69.09l-.5,3.09h-6.43v-.34c.44-.06,.74-.17,.89-.34,.2-.25,.3-.73,.3-1.42v-8.39c0-.73-.1-1.22-.31-1.46-.14-.16-.44-.27-.88-.33v-.34h6.32l.08,2.57h-.26c-.1-.87-.26-1.42-.47-1.65-.23-.23-.69-.34-1.38-.34h-1.83c-.18,0-.3,.03-.35,.09-.09,.1-.14,.29-.14,.57v4.41h2.07c.52,0,.86-.12,1.04-.38,.14-.21,.24-.67,.31-1.39h.26v4.27h-.26c-.07-.78-.19-1.27-.35-1.48-.16-.22-.5-.33-1-.33h-2.07v4.77c0,.41,.12,.68,.35,.79,.23,.09,.8,.14,1.74,.14,.76,0,1.32-.17,1.67-.51,.35-.34,.67-1.01,.96-1.99h.24Z"/>
    <path class="cls-6" d="M39.97,59.86c-.21,.03-.36,.17-.45,.39-.05,.14-.16,.56-.33,1.25l-2.52,10.79-2.6-10.53c-.2-.79-.36-1.3-.49-1.53-.12-.22-.3-.34-.56-.38v-.34h2.64v.34c-.34,.05-.57,.1-.66,.17-.14,.1-.2,.3-.2,.6,0,.19,.14,.89,.43,2.09l1.67,6.9,1.76-7.55c.13-.55,.19-1,.19-1.36s-.08-.59-.23-.7c-.09-.06-.28-.11-.58-.15v-.34h1.93v.34Z"/>
    <path class="cls-4" d="M52.43,62.95c0,1.02-.25,1.86-.76,2.52-.56,.73-1.51,1.1-2.84,1.1-.56,0-.97-.01-1.22-.03v3.4c0,.7,.12,1.19,.35,1.48,.22,.24,.59,.38,1.13,.43v.34h-3.57v-.34c.52-.07,.88-.26,1.06-.58,.15-.27,.22-.79,.22-1.56v-8.01c0-.69-.08-1.14-.24-1.36-.17-.21-.51-.35-1.03-.43v-.34h3.49c.99,0,1.78,.26,2.39,.79,.69,.61,1.03,1.48,1.03,2.61Zm-.91,.03c0-1.9-1.09-2.85-3.27-2.85-.26,0-.43,.03-.5,.1-.09,.12-.14,.34-.14,.69v4.99c.29,.05,.66,.07,1.13,.07,.62,0,1.15-.13,1.57-.38,.81-.48,1.21-1.36,1.21-2.62Z"/>
    <path class="cls-7" d="M64.97,72.17h-2.59v-.34c.26-.02,.44-.07,.54-.14,.19-.13,.29-.37,.29-.72,0-.29-.06-.7-.19-1.23l-.41-1.7h-2.79l-.45,2.18c-.05,.27-.08,.53-.08,.75,0,.37,.08,.61,.23,.72,.07,.07,.21,.11,.42,.14v.34h-1.91v-.34c.07-.02,.15-.05,.23-.09,.08-.03,.16-.13,.23-.29,.14-.32,.38-1.22,.72-2.71l2.13-9.42h.08l2.58,10.82c.17,.7,.33,1.16,.47,1.39,.1,.15,.27,.25,.5,.29v.34Zm-2.51-4.77l-1.28-5.63-1.25,5.63h2.52Z"/>
    <path class="cls-10" d="M77.43,62.62h-.29c-.13-1.05-.33-1.73-.62-2.02-.24-.26-.71-.39-1.41-.39h-.71v9.73c0,.67,.09,1.16,.27,1.44,.19,.26,.53,.42,1.03,.46v.34h-3.36v-.34c.53-.06,.89-.25,1.06-.57,.14-.26,.22-.79,.22-1.58v-9.49h-.73c-.7,0-1.16,.14-1.4,.41-.28,.29-.49,.95-.62,2.01h-.28l.12-3.07h6.62l.11,3.07Z"/>
    <path class="cls-5" d="M89.97,72.17h-2.75v-.34c.47-.07,.77-.31,.91-.74,.06-.22,.1-.69,.1-1.41v-3.76h-3.53v4c0,.67,.07,1.15,.2,1.42,.15,.25,.42,.41,.84,.48v.34h-2.71v-.34c.42-.06,.68-.24,.79-.55,.08-.23,.12-.76,.12-1.6v-8.11c0-.64-.03-1.03-.09-1.17-.09-.27-.36-.45-.81-.53v-.33h2.71v.33c-.44,.08-.72,.2-.84,.36-.14,.21-.2,.65-.2,1.34v3.74h3.53v-3.74c0-.7-.07-1.15-.2-1.35-.11-.16-.38-.27-.8-.34v-.33h2.75v.33c-.43,.08-.69,.2-.79,.36-.14,.21-.2,.65-.2,1.34v8.35c0,.69,.07,1.16,.2,1.42,.12,.25,.38,.41,.79,.48v.34Z"/>
  </g>
</svg>